<svg width="16" height="17" viewBox="0 0 16 17" fill="none" xmlns="http://www.w3.org/2000/svg">
<path d="M14.2222 0.5H1.77778C0.8 0.5 0 1.3 0 2.27778V14.7222C0 15.7 0.8 16.5 1.77778 16.5H14.2222C15.2 16.5 16 15.7 16 14.7222V2.27778C16 1.3 15.2 0.5 14.2222 0.5ZM3.55556 4.05556H5.33333V5.83333H3.55556V4.05556ZM3.55556 7.61111H5.33333V9.38889H3.55556V7.61111ZM3.55556 11.1667H5.33333V12.9444H3.55556V11.1667ZM12.4444 12.9444H7.11111V11.1667H12.4444V12.9444ZM12.4444 9.38889H7.11111V7.61111H12.4444V9.38889ZM12.4444 5.83333H7.11111V4.05556H12.4444V5.83333Z" fill="white"/>
</svg>
